<svg width="45" height="36" viewBox="0 0 45 36" fill="none" xmlns="http://www.w3.org/2000/svg">
<path d="M22.2748 4.71937C22.5655 4.46798 22.8257 4.22533 23.1055 4.00673C24.7974 2.69293 26.7452 2.14861 28.8503 2.27103C30.6582 2.37814 32.4595 2.62735 34.2629 2.81535C35.6117 2.95744 36.9627 3.04707 38.3158 2.85907C40.0559 2.61642 41.5555 1.88192 42.8146 0.657744C42.9786 0.498164 43.1163 0.312352 43.3043 0.09375C43.383 0.251144 43.4333 0.321096 43.4552 0.397607C44.4629 4.13571 44.8236 7.91097 44.0148 11.7321C43.1688 15.726 41.2167 19.0378 37.7606 21.3288C36.9146 21.8906 35.968 22.3037 35.0499 22.7519C34.7832 22.883 34.6673 23.0229 34.6477 23.3181C34.4684 26.0593 34.9559 28.6345 36.5473 30.9342C36.5692 30.9648 36.5801 31.0019 36.6216 31.0872C32.5862 33.5661 28.2011 34.8974 23.4793 35.0964C17.9049 35.3324 12.724 33.999 7.93446 31.0894C8.22302 30.5778 8.51595 30.1144 8.75641 29.6269C9.75324 27.6027 10.0658 25.4494 9.8844 23.2175C9.87347 23.0732 9.71389 22.8699 9.57617 22.8131C4.43901 20.7145 1.55565 16.8015 0.484496 11.4633C-0.26531 7.72734 0.13036 4.03952 1.10751 0.393235C1.12063 0.345143 1.1403 0.29705 1.16216 0.251144C1.17091 0.229283 1.19495 0.216167 1.23867 0.170261C1.3283 0.25333 1.4223 0.332027 1.50537 0.421653C3.30009 2.29945 5.53858 3.09735 8.0853 2.95525C10.0724 2.84377 12.0486 2.55303 14.0335 2.36284C15.332 2.23824 16.6305 2.17484 17.929 2.42842C19.4635 2.72791 20.8036 3.39027 21.9556 4.43956C22.0584 4.53138 22.1633 4.621 22.277 4.72156L22.2748 4.71937ZM29.9171 16.7403C30.1007 16.8387 30.21 16.8933 30.3172 16.9567C31.0866 17.4114 31.8649 17.8552 32.6212 18.3317C32.9054 18.511 33.1371 18.5176 33.3798 18.3099C33.9328 17.8399 34.5187 17.3983 35.0237 16.8802C36.0642 15.8134 36.9452 14.6264 37.5004 13.2252C37.6119 12.9432 37.5616 12.7749 37.2971 12.5934C34.6171 10.7397 31.9501 8.87063 29.2766 7.00814C29.1673 6.93163 29.0471 6.86605 28.9247 6.79172C27.3507 9.24007 25.1647 10.5998 22.2791 10.602C19.3783 10.6041 17.1901 9.22695 15.6358 6.78954C15.509 6.86824 15.4107 6.92507 15.3189 6.98847C12.6344 8.85533 9.94998 10.7266 7.25898 12.5847C7.01415 12.753 6.92889 12.9235 7.06443 13.1837C7.37921 13.7957 7.64809 14.4384 8.02846 15.0046C8.87883 16.2725 9.8844 17.4092 11.1567 18.2858C11.443 18.4826 11.6704 18.511 11.983 18.3121C12.724 17.8355 13.4935 17.4049 14.2521 16.9567C14.357 16.8933 14.4707 16.8431 14.6215 16.7622C14.7133 17.0267 14.8073 17.2475 14.8685 17.477C15.7626 20.7517 15.8675 24.0526 15.1811 27.3753C15.1155 27.6945 15.1636 27.8213 15.4828 27.9218C17.9049 28.6869 20.3751 29.0629 22.9197 28.993C25.0576 28.934 27.1299 28.5339 29.1629 27.8912C29.3903 27.8191 29.4537 27.7229 29.3968 27.4781C28.7148 24.4876 28.811 21.4949 29.4253 18.5088C29.5455 17.9273 29.74 17.3611 29.9149 16.7359L29.9171 16.7403Z" fill="#F5F5F5"/>
</svg>
